<svg width="48" height="30" viewBox="0 0 48 30" fill="none" xmlns="http://www.w3.org/2000/svg">
<g filter="url(#filter0_d_33_28)">
<path d="M41.6655 9.62115H36.6764L35.2897 6.69867C33.8647 3.69399 30.4639 1.75293 26.6247 1.75293H16.0414C12.203 1.75293 8.80136 3.69399 7.37553 6.69867L5.98886 9.62115H1.00053C0.349697 9.62115 -0.127803 10.1368 0.0305303 10.6686L0.53053 12.3547C0.641364 12.7298 1.04136 12.9932 1.50053 12.9932H3.17303C2.05386 13.8173 1.33303 15.0151 1.33303 16.3653V19.7374C1.33303 20.8699 1.84636 21.8921 2.66636 22.6831V26.4816C2.66636 27.723 3.86053 28.7297 5.33303 28.7297H7.9997C9.4722 28.7297 10.6664 27.723 10.6664 26.4816V24.2336H31.9997V26.4816C31.9997 27.723 33.1939 28.7297 34.6664 28.7297H37.333C38.8055 28.7297 39.9997 27.723 39.9997 26.4816V22.6831C40.8197 21.8928 41.333 20.8706 41.333 19.7374V16.3653C41.333 15.0151 40.6122 13.8173 39.4939 12.9932H41.1664C41.6255 12.9932 42.0255 12.7298 42.1364 12.3547L42.6364 10.6686C42.7939 10.1368 42.3164 9.62115 41.6655 9.62115ZM12.3272 8.36855C12.9347 7.08856 14.4055 6.24905 16.0414 6.24905H26.6247C28.2605 6.24905 29.7314 7.08856 30.3389 8.36855L31.9997 11.8692H10.6664L12.3272 8.36855ZM7.9997 19.7234C6.3997 19.7234 5.33303 18.827 5.33303 17.4823C5.33303 16.1377 6.3997 15.2413 7.9997 15.2413C9.5997 15.2413 11.9997 17.2582 11.9997 18.6029C11.9997 19.9475 9.5997 19.7234 7.9997 19.7234ZM34.6664 19.7234C33.0664 19.7234 30.6664 19.9475 30.6664 18.6029C30.6664 17.2582 33.0664 15.2413 34.6664 15.2413C36.2664 15.2413 37.333 16.1377 37.333 17.4823C37.333 18.827 36.2664 19.7234 34.6664 19.7234Z" fill="#104B3C"/>
</g>
<defs>
<filter id="filter0_d_33_28" x="0" y="0.75293" width="47.6666" height="28.9767" filterUnits="userSpaceOnUse" color-interpolation-filters="sRGB">
<feFlood flood-opacity="0" result="BackgroundImageFix"/>
<feColorMatrix in="SourceAlpha" type="matrix" values="0 0 0 0 0 0 0 0 0 0 0 0 0 0 0 0 0 0 127 0" result="hardAlpha"/>
<feOffset dx="4"/>
<feGaussianBlur stdDeviation="0.5"/>
<feComposite in2="hardAlpha" operator="out"/>
<feColorMatrix type="matrix" values="0 0 0 0 0 0 0 0 0 0 0 0 0 0 0 0 0 0 0.25 0"/>
<feBlend mode="normal" in2="BackgroundImageFix" result="effect1_dropShadow_33_28"/>
<feBlend mode="normal" in="SourceGraphic" in2="effect1_dropShadow_33_28" result="shape"/>
</filter>
</defs>
</svg>
