<svg width="53" height="54" viewBox="0 0 53 54" fill="none" xmlns="http://www.w3.org/2000/svg">
<path d="M26.5104 15.0958C19.9268 15.0958 14.6164 20.4061 14.6164 26.9897C14.6164 33.5733 19.9268 38.8836 26.5104 38.8836C33.0939 38.8836 38.4043 33.5733 38.4043 26.9897C38.4043 20.4061 33.0939 15.0958 26.5104 15.0958ZM26.5104 34.7223C22.2559 34.7223 18.7777 31.2545 18.7777 26.9897C18.7777 22.7249 22.2455 19.2571 26.5104 19.2571C30.7752 19.2571 34.243 22.7249 34.243 26.9897C34.243 31.2545 30.7648 34.7223 26.5104 34.7223ZM41.665 14.6092C41.665 16.1516 40.4229 17.3834 38.8908 17.3834C37.3484 17.3834 36.1166 16.1413 36.1166 14.6092C36.1166 13.0772 37.3588 11.835 38.8908 11.835C40.4229 11.835 41.665 13.0772 41.665 14.6092ZM49.5426 17.4249C49.3666 13.7086 48.5178 10.4168 45.7953 7.70474C43.0832 4.99263 39.7914 4.1438 36.0752 3.95747C32.2451 3.74009 20.7652 3.74009 16.9352 3.95747C13.2293 4.13345 9.9375 4.98228 7.21504 7.69439C4.49258 10.4065 3.6541 13.6983 3.46777 17.4145C3.25039 21.2446 3.25039 32.7245 3.46777 36.5545C3.64375 40.2708 4.49258 43.5626 7.21504 46.2747C9.9375 48.9868 13.2189 49.8356 16.9352 50.0219C20.7652 50.2393 32.2451 50.2393 36.0752 50.0219C39.7914 49.846 43.0832 48.9971 45.7953 46.2747C48.5074 43.5626 49.3563 40.2708 49.5426 36.5545C49.76 32.7245 49.76 21.2549 49.5426 17.4249ZM44.5945 40.6641C43.7871 42.693 42.224 44.2561 40.1848 45.0739C37.1311 46.285 29.885 46.0055 26.5104 46.0055C23.1357 46.0055 15.8793 46.2747 12.8359 45.0739C10.807 44.2665 9.24395 42.7034 8.42617 40.6641C7.21504 37.6104 7.49453 30.3643 7.49453 26.9897C7.49453 23.6151 7.22539 16.3586 8.42617 13.3153C9.23359 11.2864 10.7967 9.72329 12.8359 8.90552C15.8896 7.69439 23.1357 7.97388 26.5104 7.97388C29.885 7.97388 37.1414 7.70474 40.1848 8.90552C42.2137 9.71294 43.7768 11.276 44.5945 13.3153C45.8057 16.369 45.5262 23.6151 45.5262 26.9897C45.5262 30.3643 45.8057 37.6208 44.5945 40.6641Z" fill="#104B3C"/>
</svg>
