<svg width="53" height="54" viewBox="0 0 53 54" fill="none" xmlns="http://www.w3.org/2000/svg">
<path d="M46.375 3.8125H6.61465C4.79277 3.8125 3.3125 5.31348 3.3125 7.15605V46.8439C3.3125 48.6865 4.79277 50.1875 6.61465 50.1875H46.375C48.1969 50.1875 49.6875 48.6865 49.6875 46.8439V7.15605C49.6875 5.31348 48.1969 3.8125 46.375 3.8125ZM17.3285 43.5625H10.4551V21.4309H17.3389V43.5625H17.3285ZM13.8918 18.4082C11.6869 18.4082 9.90645 16.6174 9.90645 14.4229C9.90645 12.2283 11.6869 10.4375 13.8918 10.4375C16.0863 10.4375 17.8771 12.2283 17.8771 14.4229C17.8771 16.6277 16.0967 18.4082 13.8918 18.4082ZM43.0936 43.5625H36.2201V32.7969C36.2201 30.2297 36.1684 26.9275 32.6488 26.9275C29.0672 26.9275 28.5186 29.7225 28.5186 32.6105V43.5625H21.6451V21.4309H28.2391V24.4535H28.3322C29.2535 22.7145 31.4998 20.8822 34.8434 20.8822C41.7996 20.8822 43.0936 25.468 43.0936 31.4305V43.5625Z" fill="#104B3C"/>
</svg>
