<svg width="56" height="54" viewBox="0 0 56 54" fill="none" xmlns="http://www.w3.org/2000/svg">
<g clip-path="url(#clip0_33_147)" filter="url(#filter0_d_33_147)">
<path d="M48.5732 37.3321L37.6357 32.6446C37.1685 32.4455 36.6492 32.4035 36.1561 32.5251C35.6629 32.6466 35.2226 32.925 34.9014 33.3185L30.0576 39.2364C22.4558 35.6522 16.3381 29.5345 12.7539 21.9327L18.6719 17.089C19.0661 16.7683 19.3451 16.328 19.4667 15.8346C19.5883 15.3412 19.5458 14.8217 19.3457 14.3546L14.6582 3.41708C14.4386 2.91358 14.0502 2.50248 13.5599 2.25468C13.0697 2.00688 12.5083 1.93791 11.9727 2.05966L1.81641 4.40341C1.29997 4.52267 0.839204 4.81345 0.509312 5.2283C0.179419 5.64315 -0.000118966 6.15756 5.91426e-08 6.68759C5.91426e-08 31.7364 20.3027 52.0001 45.3125 52.0001C45.8427 52.0004 46.3573 51.821 46.7724 51.4911C47.1874 51.1612 47.4784 50.7003 47.5977 50.1837L49.9414 40.0274C50.0624 39.4892 49.9919 38.9256 49.7422 38.4336C49.4925 37.9417 49.0791 37.5522 48.5732 37.3321Z" fill="#68AB9A"/>
</g>
<defs>
<filter id="filter0_d_33_147" x="0" y="0" width="56" height="54" filterUnits="userSpaceOnUse" color-interpolation-filters="sRGB">
<feFlood flood-opacity="0" result="BackgroundImageFix"/>
<feColorMatrix in="SourceAlpha" type="matrix" values="0 0 0 0 0 0 0 0 0 0 0 0 0 0 0 0 0 0 127 0" result="hardAlpha"/>
<feOffset dx="4"/>
<feGaussianBlur stdDeviation="1"/>
<feComposite in2="hardAlpha" operator="out"/>
<feColorMatrix type="matrix" values="0 0 0 0 0 0 0 0 0 0 0 0 0 0 0 0 0 0 0.25 0"/>
<feBlend mode="normal" in2="BackgroundImageFix" result="effect1_dropShadow_33_147"/>
<feBlend mode="normal" in="SourceGraphic" in2="effect1_dropShadow_33_147" result="shape"/>
</filter>
<clipPath id="clip0_33_147">
<rect width="50" height="50" fill="white" transform="translate(0 2)"/>
</clipPath>
</defs>
</svg>
